<?xml version="1.0" encoding="utf-8" standalone="no"?>
<!DOCTYPE svg PUBLIC "-//W3C//DTD SVG 1.1//EN"
  "http://www.w3.org/Graphics/SVG/1.1/DTD/svg11.dtd">
<svg xmlns:xlink="http://www.w3.org/1999/xlink" width="720pt" height="432pt" viewBox="0 0 720 432" xmlns="http://www.w3.org/2000/svg" version="1.1">
 <metadata>
  <rdf:RDF xmlns:dc="http://purl.org/dc/elements/1.1/" xmlns:cc="http://creativecommons.org/ns#" xmlns:rdf="http://www.w3.org/1999/02/22-rdf-syntax-ns#">
   <cc:Work>
    <dc:type rdf:resource="http://purl.org/dc/dcmitype/StillImage"/>
    <dc:date>2024-08-26T15:07:13.563464</dc:date>
    <dc:format>image/svg+xml</dc:format>
    <dc:creator>
     <cc:Agent>
      <dc:title>Matplotlib v3.8.4, https://matplotlib.org/</dc:title>
     </cc:Agent>
    </dc:creator>
   </cc:Work>
  </rdf:RDF>
 </metadata>
 <defs>
  <style type="text/css">*{stroke-linejoin: round; stroke-linecap: butt}</style>
 </defs>
 <g id="figure_1">
  <g id="patch_1">
   <path d="M 0 432 
L 720 432 
L 720 0 
L 0 0 
z
" style="fill: #ffffff"/>
  </g>
  <g id="axes_1">
   <g id="patch_2">
    <path d="M 45.29 366.424 
L 707.04 366.424 
L 707.04 12.96 
L 45.29 12.96 
z
" style="fill: #ffffff"/>
   </g>
   <g id="matplotlib.axis_1">
    <g id="xtick_1">
     <g id="text_1">
      <!-- Fairphone 2 -->
      <g style="fill: #262626" transform="translate(92.793437 382.542125) scale(0.12 -0.12)">
       <defs>
        <path id="DejaVuSans-46" d="M 628 4666 
L 3309 4666 
L 3309 4134 
L 1259 4134 
L 1259 2759 
L 3109 2759 
L 3109 2228 
L 1259 2228 
L 1259 0 
L 628 0 
L 628 4666 
z
" transform="scale(0.015625)"/>
        <path id="DejaVuSans-61" d="M 2194 1759 
Q 1497 1759 1228 1600 
Q 959 1441 959 1056 
Q 959 750 1161 570 
Q 1363 391 1709 391 
Q 2188 391 2477 730 
Q 2766 1069 2766 1631 
L 2766 1759 
L 2194 1759 
z
M 3341 1997 
L 3341 0 
L 2766 0 
L 2766 531 
Q 2569 213 2275 61 
Q 1981 -91 1556 -91 
Q 1019 -91 701 211 
Q 384 513 384 1019 
Q 384 1609 779 1909 
Q 1175 2209 1959 2209 
L 2766 2209 
L 2766 2266 
Q 2766 2663 2505 2880 
Q 2244 3097 1772 3097 
Q 1472 3097 1187 3025 
Q 903 2953 641 2809 
L 641 3341 
Q 956 3463 1253 3523 
Q 1550 3584 1831 3584 
Q 2591 3584 2966 3190 
Q 3341 2797 3341 1997 
z
" transform="scale(0.015625)"/>
        <path id="DejaVuSans-69" d="M 603 3500 
L 1178 3500 
L 1178 0 
L 603 0 
L 603 3500 
z
M 603 4863 
L 1178 4863 
L 1178 4134 
L 603 4134 
L 603 4863 
z
" transform="scale(0.015625)"/>
        <path id="DejaVuSans-72" d="M 2631 2963 
Q 2534 3019 2420 3045 
Q 2306 3072 2169 3072 
Q 1681 3072 1420 2755 
Q 1159 2438 1159 1844 
L 1159 0 
L 581 0 
L 581 3500 
L 1159 3500 
L 1159 2956 
Q 1341 3275 1631 3429 
Q 1922 3584 2338 3584 
Q 2397 3584 2469 3576 
Q 2541 3569 2628 3553 
L 2631 2963 
z
" transform="scale(0.015625)"/>
        <path id="DejaVuSans-70" d="M 1159 525 
L 1159 -1331 
L 581 -1331 
L 581 3500 
L 1159 3500 
L 1159 2969 
Q 1341 3281 1617 3432 
Q 1894 3584 2278 3584 
Q 2916 3584 3314 3078 
Q 3713 2572 3713 1747 
Q 3713 922 3314 415 
Q 2916 -91 2278 -91 
Q 1894 -91 1617 61 
Q 1341 213 1159 525 
z
M 3116 1747 
Q 3116 2381 2855 2742 
Q 2594 3103 2138 3103 
Q 1681 3103 1420 2742 
Q 1159 2381 1159 1747 
Q 1159 1113 1420 752 
Q 1681 391 2138 391 
Q 2594 391 2855 752 
Q 3116 1113 3116 1747 
z
" transform="scale(0.015625)"/>
        <path id="DejaVuSans-68" d="M 3513 2113 
L 3513 0 
L 2938 0 
L 2938 2094 
Q 2938 2591 2744 2837 
Q 2550 3084 2163 3084 
Q 1697 3084 1428 2787 
Q 1159 2491 1159 1978 
L 1159 0 
L 581 0 
L 581 4863 
L 1159 4863 
L 1159 2956 
Q 1366 3272 1645 3428 
Q 1925 3584 2291 3584 
Q 2894 3584 3203 3211 
Q 3513 2838 3513 2113 
z
" transform="scale(0.015625)"/>
        <path id="DejaVuSans-6f" d="M 1959 3097 
Q 1497 3097 1228 2736 
Q 959 2375 959 1747 
Q 959 1119 1226 758 
Q 1494 397 1959 397 
Q 2419 397 2687 759 
Q 2956 1122 2956 1747 
Q 2956 2369 2687 2733 
Q 2419 3097 1959 3097 
z
M 1959 3584 
Q 2709 3584 3137 3096 
Q 3566 2609 3566 1747 
Q 3566 888 3137 398 
Q 2709 -91 1959 -91 
Q 1206 -91 779 398 
Q 353 888 353 1747 
Q 353 2609 779 3096 
Q 1206 3584 1959 3584 
z
" transform="scale(0.015625)"/>
        <path id="DejaVuSans-6e" d="M 3513 2113 
L 3513 0 
L 2938 0 
L 2938 2094 
Q 2938 2591 2744 2837 
Q 2550 3084 2163 3084 
Q 1697 3084 1428 2787 
Q 1159 2491 1159 1978 
L 1159 0 
L 581 0 
L 581 3500 
L 1159 3500 
L 1159 2956 
Q 1366 3272 1645 3428 
Q 1925 3584 2291 3584 
Q 2894 3584 3203 3211 
Q 3513 2838 3513 2113 
z
" transform="scale(0.015625)"/>
        <path id="DejaVuSans-65" d="M 3597 1894 
L 3597 1613 
L 953 1613 
Q 991 1019 1311 708 
Q 1631 397 2203 397 
Q 2534 397 2845 478 
Q 3156 559 3463 722 
L 3463 178 
Q 3153 47 2828 -22 
Q 2503 -91 2169 -91 
Q 1331 -91 842 396 
Q 353 884 353 1716 
Q 353 2575 817 3079 
Q 1281 3584 2069 3584 
Q 2775 3584 3186 3129 
Q 3597 2675 3597 1894 
z
M 3022 2063 
Q 3016 2534 2758 2815 
Q 2500 3097 2075 3097 
Q 1594 3097 1305 2825 
Q 1016 2553 972 2059 
L 3022 2063 
z
" transform="scale(0.015625)"/>
        <path id="DejaVuSans-20" transform="scale(0.015625)"/>
        <path id="DejaVuSans-32" d="M 1228 531 
L 3431 531 
L 3431 0 
L 469 0 
L 469 531 
Q 828 903 1448 1529 
Q 2069 2156 2228 2338 
Q 2531 2678 2651 2914 
Q 2772 3150 2772 3378 
Q 2772 3750 2511 3984 
Q 2250 4219 1831 4219 
Q 1534 4219 1204 4116 
Q 875 4013 500 3803 
L 500 4441 
Q 881 4594 1212 4672 
Q 1544 4750 1819 4750 
Q 2544 4750 2975 4387 
Q 3406 4025 3406 3419 
Q 3406 3131 3298 2873 
Q 3191 2616 2906 2266 
Q 2828 2175 2409 1742 
Q 1991 1309 1228 531 
z
" transform="scale(0.015625)"/>
       </defs>
       <use xlink:href="#DejaVuSans-46"/>
       <use xlink:href="#DejaVuSans-61" x="48.394531"/>
       <use xlink:href="#DejaVuSans-69" x="109.673828"/>
       <use xlink:href="#DejaVuSans-72" x="137.457031"/>
       <use xlink:href="#DejaVuSans-70" x="178.570312"/>
       <use xlink:href="#DejaVuSans-68" x="242.046875"/>
       <use xlink:href="#DejaVuSans-6f" x="305.425781"/>
       <use xlink:href="#DejaVuSans-6e" x="366.607422"/>
       <use xlink:href="#DejaVuSans-65" x="429.986328"/>
       <use xlink:href="#DejaVuSans-20" x="491.509766"/>
       <use xlink:href="#DejaVuSans-32" x="523.296875"/>
      </g>
      <!-- (Receiver) -->
      <g style="fill: #262626" transform="translate(97.368437 395.9795) scale(0.12 -0.12)">
       <defs>
        <path id="DejaVuSans-28" d="M 1984 4856 
Q 1566 4138 1362 3434 
Q 1159 2731 1159 2009 
Q 1159 1288 1364 580 
Q 1569 -128 1984 -844 
L 1484 -844 
Q 1016 -109 783 600 
Q 550 1309 550 2009 
Q 550 2706 781 3412 
Q 1013 4119 1484 4856 
L 1984 4856 
z
" transform="scale(0.015625)"/>
        <path id="DejaVuSans-52" d="M 2841 2188 
Q 3044 2119 3236 1894 
Q 3428 1669 3622 1275 
L 4263 0 
L 3584 0 
L 2988 1197 
Q 2756 1666 2539 1819 
Q 2322 1972 1947 1972 
L 1259 1972 
L 1259 0 
L 628 0 
L 628 4666 
L 2053 4666 
Q 2853 4666 3247 4331 
Q 3641 3997 3641 3322 
Q 3641 2881 3436 2590 
Q 3231 2300 2841 2188 
z
M 1259 4147 
L 1259 2491 
L 2053 2491 
Q 2509 2491 2742 2702 
Q 2975 2913 2975 3322 
Q 2975 3731 2742 3939 
Q 2509 4147 2053 4147 
L 1259 4147 
z
" transform="scale(0.015625)"/>
        <path id="DejaVuSans-63" d="M 3122 3366 
L 3122 2828 
Q 2878 2963 2633 3030 
Q 2388 3097 2138 3097 
Q 1578 3097 1268 2742 
Q 959 2388 959 1747 
Q 959 1106 1268 751 
Q 1578 397 2138 397 
Q 2388 397 2633 464 
Q 2878 531 3122 666 
L 3122 134 
Q 2881 22 2623 -34 
Q 2366 -91 2075 -91 
Q 1284 -91 818 406 
Q 353 903 353 1747 
Q 353 2603 823 3093 
Q 1294 3584 2113 3584 
Q 2378 3584 2631 3529 
Q 2884 3475 3122 3366 
z
" transform="scale(0.015625)"/>
        <path id="DejaVuSans-76" d="M 191 3500 
L 800 3500 
L 1894 563 
L 2988 3500 
L 3597 3500 
L 2284 0 
L 1503 0 
L 191 3500 
z
" transform="scale(0.015625)"/>
        <path id="DejaVuSans-29" d="M 513 4856 
L 1013 4856 
Q 1481 4119 1714 3412 
Q 1947 2706 1947 2009 
Q 1947 1309 1714 600 
Q 1481 -109 1013 -844 
L 513 -844 
Q 928 -128 1133 580 
Q 1338 1288 1338 2009 
Q 1338 2731 1133 3434 
Q 928 4138 513 4856 
z
" transform="scale(0.015625)"/>
       </defs>
       <use xlink:href="#DejaVuSans-28"/>
       <use xlink:href="#DejaVuSans-52" x="39.013672"/>
       <use xlink:href="#DejaVuSans-65" x="103.996094"/>
       <use xlink:href="#DejaVuSans-63" x="165.519531"/>
       <use xlink:href="#DejaVuSans-65" x="220.5"/>
       <use xlink:href="#DejaVuSans-69" x="282.023438"/>
       <use xlink:href="#DejaVuSans-76" x="309.806641"/>
       <use xlink:href="#DejaVuSans-65" x="368.986328"/>
       <use xlink:href="#DejaVuSans-72" x="430.509766"/>
       <use xlink:href="#DejaVuSans-29" x="471.623047"/>
      </g>
     </g>
    </g>
    <g id="xtick_2">
     <g id="text_2">
      <!-- Fairphone 2 -->
      <g style="fill: #262626" transform="translate(258.230937 382.542125) scale(0.12 -0.12)">
       <use xlink:href="#DejaVuSans-46"/>
       <use xlink:href="#DejaVuSans-61" x="48.394531"/>
       <use xlink:href="#DejaVuSans-69" x="109.673828"/>
       <use xlink:href="#DejaVuSans-72" x="137.457031"/>
       <use xlink:href="#DejaVuSans-70" x="178.570312"/>
       <use xlink:href="#DejaVuSans-68" x="242.046875"/>
       <use xlink:href="#DejaVuSans-6f" x="305.425781"/>
       <use xlink:href="#DejaVuSans-6e" x="366.607422"/>
       <use xlink:href="#DejaVuSans-65" x="429.986328"/>
       <use xlink:href="#DejaVuSans-20" x="491.509766"/>
       <use xlink:href="#DejaVuSans-32" x="523.296875"/>
      </g>
      <!-- (Sender) -->
      <g style="fill: #262626" transform="translate(267.493437 395.9795) scale(0.12 -0.12)">
       <defs>
        <path id="DejaVuSans-53" d="M 3425 4513 
L 3425 3897 
Q 3066 4069 2747 4153 
Q 2428 4238 2131 4238 
Q 1616 4238 1336 4038 
Q 1056 3838 1056 3469 
Q 1056 3159 1242 3001 
Q 1428 2844 1947 2747 
L 2328 2669 
Q 3034 2534 3370 2195 
Q 3706 1856 3706 1288 
Q 3706 609 3251 259 
Q 2797 -91 1919 -91 
Q 1588 -91 1214 -16 
Q 841 59 441 206 
L 441 856 
Q 825 641 1194 531 
Q 1563 422 1919 422 
Q 2459 422 2753 634 
Q 3047 847 3047 1241 
Q 3047 1584 2836 1778 
Q 2625 1972 2144 2069 
L 1759 2144 
Q 1053 2284 737 2584 
Q 422 2884 422 3419 
Q 422 4038 858 4394 
Q 1294 4750 2059 4750 
Q 2388 4750 2728 4690 
Q 3069 4631 3425 4513 
z
" transform="scale(0.015625)"/>
        <path id="DejaVuSans-64" d="M 2906 2969 
L 2906 4863 
L 3481 4863 
L 3481 0 
L 2906 0 
L 2906 525 
Q 2725 213 2448 61 
Q 2172 -91 1784 -91 
Q 1150 -91 751 415 
Q 353 922 353 1747 
Q 353 2572 751 3078 
Q 1150 3584 1784 3584 
Q 2172 3584 2448 3432 
Q 2725 3281 2906 2969 
z
M 947 1747 
Q 947 1113 1208 752 
Q 1469 391 1925 391 
Q 2381 391 2643 752 
Q 2906 1113 2906 1747 
Q 2906 2381 2643 2742 
Q 2381 3103 1925 3103 
Q 1469 3103 1208 2742 
Q 947 2381 947 1747 
z
" transform="scale(0.015625)"/>
       </defs>
       <use xlink:href="#DejaVuSans-28"/>
       <use xlink:href="#DejaVuSans-53" x="39.013672"/>
       <use xlink:href="#DejaVuSans-65" x="102.490234"/>
       <use xlink:href="#DejaVuSans-6e" x="164.013672"/>
       <use xlink:href="#DejaVuSans-64" x="227.392578"/>
       <use xlink:href="#DejaVuSans-65" x="290.869141"/>
       <use xlink:href="#DejaVuSans-72" x="352.392578"/>
       <use xlink:href="#DejaVuSans-29" x="393.505859"/>
      </g>
     </g>
    </g>
    <g id="xtick_3">
     <g id="text_3">
      <!-- Raspberry Pi 5 -->
      <g style="fill: #262626" transform="translate(415.576875 382.542125) scale(0.12 -0.12)">
       <defs>
        <path id="DejaVuSans-73" d="M 2834 3397 
L 2834 2853 
Q 2591 2978 2328 3040 
Q 2066 3103 1784 3103 
Q 1356 3103 1142 2972 
Q 928 2841 928 2578 
Q 928 2378 1081 2264 
Q 1234 2150 1697 2047 
L 1894 2003 
Q 2506 1872 2764 1633 
Q 3022 1394 3022 966 
Q 3022 478 2636 193 
Q 2250 -91 1575 -91 
Q 1294 -91 989 -36 
Q 684 19 347 128 
L 347 722 
Q 666 556 975 473 
Q 1284 391 1588 391 
Q 1994 391 2212 530 
Q 2431 669 2431 922 
Q 2431 1156 2273 1281 
Q 2116 1406 1581 1522 
L 1381 1569 
Q 847 1681 609 1914 
Q 372 2147 372 2553 
Q 372 3047 722 3315 
Q 1072 3584 1716 3584 
Q 2034 3584 2315 3537 
Q 2597 3491 2834 3397 
z
" transform="scale(0.015625)"/>
        <path id="DejaVuSans-62" d="M 3116 1747 
Q 3116 2381 2855 2742 
Q 2594 3103 2138 3103 
Q 1681 3103 1420 2742 
Q 1159 2381 1159 1747 
Q 1159 1113 1420 752 
Q 1681 391 2138 391 
Q 2594 391 2855 752 
Q 3116 1113 3116 1747 
z
M 1159 2969 
Q 1341 3281 1617 3432 
Q 1894 3584 2278 3584 
Q 2916 3584 3314 3078 
Q 3713 2572 3713 1747 
Q 3713 922 3314 415 
Q 2916 -91 2278 -91 
Q 1894 -91 1617 61 
Q 1341 213 1159 525 
L 1159 0 
L 581 0 
L 581 4863 
L 1159 4863 
L 1159 2969 
z
" transform="scale(0.015625)"/>
        <path id="DejaVuSans-79" d="M 2059 -325 
Q 1816 -950 1584 -1140 
Q 1353 -1331 966 -1331 
L 506 -1331 
L 506 -850 
L 844 -850 
Q 1081 -850 1212 -737 
Q 1344 -625 1503 -206 
L 1606 56 
L 191 3500 
L 800 3500 
L 1894 763 
L 2988 3500 
L 3597 3500 
L 2059 -325 
z
" transform="scale(0.015625)"/>
        <path id="DejaVuSans-50" d="M 1259 4147 
L 1259 2394 
L 2053 2394 
Q 2494 2394 2734 2622 
Q 2975 2850 2975 3272 
Q 2975 3691 2734 3919 
Q 2494 4147 2053 4147 
L 1259 4147 
z
M 628 4666 
L 2053 4666 
Q 2838 4666 3239 4311 
Q 3641 3956 3641 3272 
Q 3641 2581 3239 2228 
Q 2838 1875 2053 1875 
L 1259 1875 
L 1259 0 
L 628 0 
L 628 4666 
z
" transform="scale(0.015625)"/>
        <path id="DejaVuSans-35" d="M 691 4666 
L 3169 4666 
L 3169 4134 
L 1269 4134 
L 1269 2991 
Q 1406 3038 1543 3061 
Q 1681 3084 1819 3084 
Q 2600 3084 3056 2656 
Q 3513 2228 3513 1497 
Q 3513 744 3044 326 
Q 2575 -91 1722 -91 
Q 1428 -91 1123 -41 
Q 819 9 494 109 
L 494 744 
Q 775 591 1075 516 
Q 1375 441 1709 441 
Q 2250 441 2565 725 
Q 2881 1009 2881 1497 
Q 2881 1984 2565 2268 
Q 2250 2553 1709 2553 
Q 1456 2553 1204 2497 
Q 953 2441 691 2322 
L 691 4666 
z
" transform="scale(0.015625)"/>
       </defs>
       <use xlink:href="#DejaVuSans-52"/>
       <use xlink:href="#DejaVuSans-61" x="67.232422"/>
       <use xlink:href="#DejaVuSans-73" x="128.511719"/>
       <use xlink:href="#DejaVuSans-70" x="180.611328"/>
       <use xlink:href="#DejaVuSans-62" x="244.087891"/>
       <use xlink:href="#DejaVuSans-65" x="307.564453"/>
       <use xlink:href="#DejaVuSans-72" x="369.087891"/>
       <use xlink:href="#DejaVuSans-72" x="408.451172"/>
       <use xlink:href="#DejaVuSans-79" x="449.564453"/>
       <use xlink:href="#DejaVuSans-20" x="508.744141"/>
       <use xlink:href="#DejaVuSans-50" x="540.53125"/>
       <use xlink:href="#DejaVuSans-69" x="598.583984"/>
       <use xlink:href="#DejaVuSans-20" x="626.367188"/>
       <use xlink:href="#DejaVuSans-35" x="658.154297"/>
      </g>
      <!-- (Receiver) -->
      <g style="fill: #262626" transform="translate(428.243437 395.9795) scale(0.12 -0.12)">
       <use xlink:href="#DejaVuSans-28"/>
       <use xlink:href="#DejaVuSans-52" x="39.013672"/>
       <use xlink:href="#DejaVuSans-65" x="103.996094"/>
       <use xlink:href="#DejaVuSans-63" x="165.519531"/>
       <use xlink:href="#DejaVuSans-65" x="220.5"/>
       <use xlink:href="#DejaVuSans-69" x="282.023438"/>
       <use xlink:href="#DejaVuSans-76" x="309.806641"/>
       <use xlink:href="#DejaVuSans-65" x="368.986328"/>
       <use xlink:href="#DejaVuSans-72" x="430.509766"/>
       <use xlink:href="#DejaVuSans-29" x="471.623047"/>
      </g>
     </g>
    </g>
    <g id="xtick_4">
     <g id="text_4">
      <!-- Raspberry Pi 5 -->
      <g style="fill: #262626" transform="translate(581.014375 382.542125) scale(0.12 -0.12)">
       <use xlink:href="#DejaVuSans-52"/>
       <use xlink:href="#DejaVuSans-61" x="67.232422"/>
       <use xlink:href="#DejaVuSans-73" x="128.511719"/>
       <use xlink:href="#DejaVuSans-70" x="180.611328"/>
       <use xlink:href="#DejaVuSans-62" x="244.087891"/>
       <use xlink:href="#DejaVuSans-65" x="307.564453"/>
       <use xlink:href="#DejaVuSans-72" x="369.087891"/>
       <use xlink:href="#DejaVuSans-72" x="408.451172"/>
       <use xlink:href="#DejaVuSans-79" x="449.564453"/>
       <use xlink:href="#DejaVuSans-20" x="508.744141"/>
       <use xlink:href="#DejaVuSans-50" x="540.53125"/>
       <use xlink:href="#DejaVuSans-69" x="598.583984"/>
       <use xlink:href="#DejaVuSans-20" x="626.367188"/>
       <use xlink:href="#DejaVuSans-35" x="658.154297"/>
      </g>
      <!-- (Sender) -->
      <g style="fill: #262626" transform="translate(598.368437 395.9795) scale(0.12 -0.12)">
       <use xlink:href="#DejaVuSans-28"/>
       <use xlink:href="#DejaVuSans-53" x="39.013672"/>
       <use xlink:href="#DejaVuSans-65" x="102.490234"/>
       <use xlink:href="#DejaVuSans-6e" x="164.013672"/>
       <use xlink:href="#DejaVuSans-64" x="227.392578"/>
       <use xlink:href="#DejaVuSans-65" x="290.869141"/>
       <use xlink:href="#DejaVuSans-72" x="352.392578"/>
       <use xlink:href="#DejaVuSans-29" x="393.505859"/>
      </g>
     </g>
    </g>
    <g id="text_5">
     <!-- Device -->
     <g style="fill: #262626" transform="translate(352.223906 413.112937) scale(0.14 -0.14)">
      <defs>
       <path id="DejaVuSans-44" d="M 1259 4147 
L 1259 519 
L 2022 519 
Q 2988 519 3436 956 
Q 3884 1394 3884 2338 
Q 3884 3275 3436 3711 
Q 2988 4147 2022 4147 
L 1259 4147 
z
M 628 4666 
L 1925 4666 
Q 3281 4666 3915 4102 
Q 4550 3538 4550 2338 
Q 4550 1131 3912 565 
Q 3275 0 1925 0 
L 628 0 
L 628 4666 
z
" transform="scale(0.015625)"/>
      </defs>
      <use xlink:href="#DejaVuSans-44"/>
      <use xlink:href="#DejaVuSans-65" x="77.001953"/>
      <use xlink:href="#DejaVuSans-76" x="138.525391"/>
      <use xlink:href="#DejaVuSans-69" x="197.705078"/>
      <use xlink:href="#DejaVuSans-63" x="225.488281"/>
      <use xlink:href="#DejaVuSans-65" x="280.46875"/>
     </g>
    </g>
   </g>
   <g id="matplotlib.axis_2">
    <g id="ytick_1">
     <g id="line2d_1">
      <path d="M 45.29 366.424 
L 707.04 366.424 
" clip-path="url(#pe551c2ff64)" style="fill: none; stroke: #cccccc; stroke-width: 0.8; stroke-linecap: round"/>
     </g>
     <g id="text_6">
      <!-- 0 -->
      <g style="fill: #262626" transform="translate(30.655 370.983062) scale(0.12 -0.12)">
       <defs>
        <path id="DejaVuSans-30" d="M 2034 4250 
Q 1547 4250 1301 3770 
Q 1056 3291 1056 2328 
Q 1056 1369 1301 889 
Q 1547 409 2034 409 
Q 2525 409 2770 889 
Q 3016 1369 3016 2328 
Q 3016 3291 2770 3770 
Q 2525 4250 2034 4250 
z
M 2034 4750 
Q 2819 4750 3233 4129 
Q 3647 3509 3647 2328 
Q 3647 1150 3233 529 
Q 2819 -91 2034 -91 
Q 1250 -91 836 529 
Q 422 1150 422 2328 
Q 422 3509 836 4129 
Q 1250 4750 2034 4750 
z
" transform="scale(0.015625)"/>
       </defs>
       <use xlink:href="#DejaVuSans-30"/>
      </g>
     </g>
    </g>
    <g id="ytick_2">
     <g id="line2d_2">
      <path d="M 45.29 310.822109 
L 707.04 310.822109 
" clip-path="url(#pe551c2ff64)" style="fill: none; stroke: #cccccc; stroke-width: 0.8; stroke-linecap: round"/>
     </g>
     <g id="text_7">
      <!-- 1 -->
      <g style="fill: #262626" transform="translate(30.655 315.381172) scale(0.12 -0.12)">
       <defs>
        <path id="DejaVuSans-31" d="M 794 531 
L 1825 531 
L 1825 4091 
L 703 3866 
L 703 4441 
L 1819 4666 
L 2450 4666 
L 2450 531 
L 3481 531 
L 3481 0 
L 794 0 
L 794 531 
z
" transform="scale(0.015625)"/>
       </defs>
       <use xlink:href="#DejaVuSans-31"/>
      </g>
     </g>
    </g>
    <g id="ytick_3">
     <g id="line2d_3">
      <path d="M 45.29 255.220218 
L 707.04 255.220218 
" clip-path="url(#pe551c2ff64)" style="fill: none; stroke: #cccccc; stroke-width: 0.8; stroke-linecap: round"/>
     </g>
     <g id="text_8">
      <!-- 2 -->
      <g style="fill: #262626" transform="translate(30.655 259.779281) scale(0.12 -0.12)">
       <use xlink:href="#DejaVuSans-32"/>
      </g>
     </g>
    </g>
    <g id="ytick_4">
     <g id="line2d_4">
      <path d="M 45.29 199.618328 
L 707.04 199.618328 
" clip-path="url(#pe551c2ff64)" style="fill: none; stroke: #cccccc; stroke-width: 0.8; stroke-linecap: round"/>
     </g>
     <g id="text_9">
      <!-- 3 -->
      <g style="fill: #262626" transform="translate(30.655 204.17739) scale(0.12 -0.12)">
       <defs>
        <path id="DejaVuSans-33" d="M 2597 2516 
Q 3050 2419 3304 2112 
Q 3559 1806 3559 1356 
Q 3559 666 3084 287 
Q 2609 -91 1734 -91 
Q 1441 -91 1130 -33 
Q 819 25 488 141 
L 488 750 
Q 750 597 1062 519 
Q 1375 441 1716 441 
Q 2309 441 2620 675 
Q 2931 909 2931 1356 
Q 2931 1769 2642 2001 
Q 2353 2234 1838 2234 
L 1294 2234 
L 1294 2753 
L 1863 2753 
Q 2328 2753 2575 2939 
Q 2822 3125 2822 3475 
Q 2822 3834 2567 4026 
Q 2313 4219 1838 4219 
Q 1578 4219 1281 4162 
Q 984 4106 628 3988 
L 628 4550 
Q 988 4650 1302 4700 
Q 1616 4750 1894 4750 
Q 2613 4750 3031 4423 
Q 3450 4097 3450 3541 
Q 3450 3153 3228 2886 
Q 3006 2619 2597 2516 
z
" transform="scale(0.015625)"/>
       </defs>
       <use xlink:href="#DejaVuSans-33"/>
      </g>
     </g>
    </g>
    <g id="ytick_5">
     <g id="line2d_5">
      <path d="M 45.29 144.016437 
L 707.04 144.016437 
" clip-path="url(#pe551c2ff64)" style="fill: none; stroke: #cccccc; stroke-width: 0.8; stroke-linecap: round"/>
     </g>
     <g id="text_10">
      <!-- 4 -->
      <g style="fill: #262626" transform="translate(30.655 148.575499) scale(0.12 -0.12)">
       <defs>
        <path id="DejaVuSans-34" d="M 2419 4116 
L 825 1625 
L 2419 1625 
L 2419 4116 
z
M 2253 4666 
L 3047 4666 
L 3047 1625 
L 3713 1625 
L 3713 1100 
L 3047 1100 
L 3047 0 
L 2419 0 
L 2419 1100 
L 313 1100 
L 313 1709 
L 2253 4666 
z
" transform="scale(0.015625)"/>
       </defs>
       <use xlink:href="#DejaVuSans-34"/>
      </g>
     </g>
    </g>
    <g id="ytick_6">
     <g id="line2d_6">
      <path d="M 45.29 88.414546 
L 707.04 88.414546 
" clip-path="url(#pe551c2ff64)" style="fill: none; stroke: #cccccc; stroke-width: 0.8; stroke-linecap: round"/>
     </g>
     <g id="text_11">
      <!-- 5 -->
      <g style="fill: #262626" transform="translate(30.655 92.973608) scale(0.12 -0.12)">
       <use xlink:href="#DejaVuSans-35"/>
      </g>
     </g>
    </g>
    <g id="ytick_7">
     <g id="line2d_7">
      <path d="M 45.29 32.812655 
L 707.04 32.812655 
" clip-path="url(#pe551c2ff64)" style="fill: none; stroke: #cccccc; stroke-width: 0.8; stroke-linecap: round"/>
     </g>
     <g id="text_12">
      <!-- 6 -->
      <g style="fill: #262626" transform="translate(30.655 37.371718) scale(0.12 -0.12)">
       <defs>
        <path id="DejaVuSans-36" d="M 2113 2584 
Q 1688 2584 1439 2293 
Q 1191 2003 1191 1497 
Q 1191 994 1439 701 
Q 1688 409 2113 409 
Q 2538 409 2786 701 
Q 3034 994 3034 1497 
Q 3034 2003 2786 2293 
Q 2538 2584 2113 2584 
z
M 3366 4563 
L 3366 3988 
Q 3128 4100 2886 4159 
Q 2644 4219 2406 4219 
Q 1781 4219 1451 3797 
Q 1122 3375 1075 2522 
Q 1259 2794 1537 2939 
Q 1816 3084 2150 3084 
Q 2853 3084 3261 2657 
Q 3669 2231 3669 1497 
Q 3669 778 3244 343 
Q 2819 -91 2113 -91 
Q 1303 -91 875 529 
Q 447 1150 447 2328 
Q 447 3434 972 4092 
Q 1497 4750 2381 4750 
Q 2619 4750 2861 4703 
Q 3103 4656 3366 4563 
z
" transform="scale(0.015625)"/>
       </defs>
       <use xlink:href="#DejaVuSans-36"/>
      </g>
     </g>
    </g>
    <g id="text_13">
     <!-- Latency (in ms) -->
     <g style="fill: #262626" transform="translate(23.743437 244.119188) rotate(-90) scale(0.14 -0.14)">
      <defs>
       <path id="DejaVuSans-4c" d="M 628 4666 
L 1259 4666 
L 1259 531 
L 3531 531 
L 3531 0 
L 628 0 
L 628 4666 
z
" transform="scale(0.015625)"/>
       <path id="DejaVuSans-74" d="M 1172 4494 
L 1172 3500 
L 2356 3500 
L 2356 3053 
L 1172 3053 
L 1172 1153 
Q 1172 725 1289 603 
Q 1406 481 1766 481 
L 2356 481 
L 2356 0 
L 1766 0 
Q 1100 0 847 248 
Q 594 497 594 1153 
L 594 3053 
L 172 3053 
L 172 3500 
L 594 3500 
L 594 4494 
L 1172 4494 
z
" transform="scale(0.015625)"/>
       <path id="DejaVuSans-6d" d="M 3328 2828 
Q 3544 3216 3844 3400 
Q 4144 3584 4550 3584 
Q 5097 3584 5394 3201 
Q 5691 2819 5691 2113 
L 5691 0 
L 5113 0 
L 5113 2094 
Q 5113 2597 4934 2840 
Q 4756 3084 4391 3084 
Q 3944 3084 3684 2787 
Q 3425 2491 3425 1978 
L 3425 0 
L 2847 0 
L 2847 2094 
Q 2847 2600 2669 2842 
Q 2491 3084 2119 3084 
Q 1678 3084 1418 2786 
Q 1159 2488 1159 1978 
L 1159 0 
L 581 0 
L 581 3500 
L 1159 3500 
L 1159 2956 
Q 1356 3278 1631 3431 
Q 1906 3584 2284 3584 
Q 2666 3584 2933 3390 
Q 3200 3197 3328 2828 
z
" transform="scale(0.015625)"/>
      </defs>
      <use xlink:href="#DejaVuSans-4c"/>
      <use xlink:href="#DejaVuSans-61" x="55.712891"/>
      <use xlink:href="#DejaVuSans-74" x="116.992188"/>
      <use xlink:href="#DejaVuSans-65" x="156.201172"/>
      <use xlink:href="#DejaVuSans-6e" x="217.724609"/>
      <use xlink:href="#DejaVuSans-63" x="281.103516"/>
      <use xlink:href="#DejaVuSans-79" x="336.083984"/>
      <use xlink:href="#DejaVuSans-20" x="395.263672"/>
      <use xlink:href="#DejaVuSans-28" x="427.050781"/>
      <use xlink:href="#DejaVuSans-69" x="466.064453"/>
      <use xlink:href="#DejaVuSans-6e" x="493.847656"/>
      <use xlink:href="#DejaVuSans-20" x="557.226562"/>
      <use xlink:href="#DejaVuSans-6d" x="589.013672"/>
      <use xlink:href="#DejaVuSans-73" x="686.425781"/>
      <use xlink:href="#DejaVuSans-29" x="738.525391"/>
     </g>
    </g>
   </g>
   <g id="patch_3">
    <path d="M 128.00875 366.424 
L 128.00875 366.424 
L 128.00875 366.424 
L 128.00875 366.424 
z
" clip-path="url(#pe551c2ff64)" style="fill: #415d82; stroke: #3a3a3a; stroke-linejoin: miter"/>
   </g>
   <g id="patch_4">
    <path d="M 128.00875 366.424 
L 128.00875 366.424 
L 128.00875 366.424 
L 128.00875 366.424 
z
" clip-path="url(#pe551c2ff64)" style="fill: #2f917e; stroke: #3a3a3a; stroke-linejoin: miter"/>
   </g>
   <g id="patch_5">
    <path d="M 128.00875 366.424 
L 128.00875 366.424 
L 128.00875 366.424 
L 128.00875 366.424 
z
" clip-path="url(#pe551c2ff64)" style="fill: #9ac64d; stroke: #3a3a3a; stroke-linejoin: miter"/>
   </g>
   <g id="patch_6">
    <path d="M 61.83375 347.811267 
L 105.950417 347.811267 
L 105.950417 343.599424 
L 61.83375 343.599424 
L 61.83375 347.811267 
z
" clip-path="url(#pe551c2ff64)" style="fill: #415d82; stroke: #3a3a3a; stroke-linejoin: miter"/>
   </g>
   <g id="line2d_8">
    <path d="M 83.892083 347.811267 
L 83.892083 351.633897 
" clip-path="url(#pe551c2ff64)" style="fill: none; stroke: #3a3a3a"/>
   </g>
   <g id="line2d_9">
    <path d="M 83.892083 343.599424 
L 83.892083 340.291111 
" clip-path="url(#pe551c2ff64)" style="fill: none; stroke: #3a3a3a"/>
   </g>
   <g id="line2d_10">
    <path d="M 72.862917 351.633897 
L 94.92125 351.633897 
" clip-path="url(#pe551c2ff64)" style="fill: none; stroke: #3a3a3a; stroke-linecap: round"/>
   </g>
   <g id="line2d_11">
    <path d="M 72.862917 340.291111 
L 94.92125 340.291111 
" clip-path="url(#pe551c2ff64)" style="fill: none; stroke: #3a3a3a; stroke-linecap: round"/>
   </g>
   <g id="line2d_12"/>
   <g id="patch_7">
    <path d="M 227.27125 340.513519 
L 271.387917 340.513519 
L 271.387917 336.968898 
L 227.27125 336.968898 
L 227.27125 340.513519 
z
" clip-path="url(#pe551c2ff64)" style="fill: #415d82; stroke: #3a3a3a; stroke-linejoin: miter"/>
   </g>
   <g id="line2d_13">
    <path d="M 249.329583 340.513519 
L 249.329583 343.015604 
" clip-path="url(#pe551c2ff64)" style="fill: none; stroke: #3a3a3a"/>
   </g>
   <g id="line2d_14">
    <path d="M 249.329583 336.968898 
L 249.329583 332.00643 
" clip-path="url(#pe551c2ff64)" style="fill: none; stroke: #3a3a3a"/>
   </g>
   <g id="line2d_15">
    <path d="M 238.300417 343.015604 
L 260.35875 343.015604 
" clip-path="url(#pe551c2ff64)" style="fill: none; stroke: #3a3a3a; stroke-linecap: round"/>
   </g>
   <g id="line2d_16">
    <path d="M 238.300417 332.00643 
L 260.35875 332.00643 
" clip-path="url(#pe551c2ff64)" style="fill: none; stroke: #3a3a3a; stroke-linecap: round"/>
   </g>
   <g id="line2d_17">
    <defs>
     <path id="m47317239fa" d="M 0 3 
C 0.795609 3 1.55874 2.683901 2.12132 2.12132 
C 2.683901 1.55874 3 0.795609 3 0 
C 3 -0.795609 2.683901 -1.55874 2.12132 -2.12132 
C 1.55874 -2.683901 0.795609 -3 0 -3 
C -0.795609 -3 -1.55874 -2.683901 -2.12132 -2.12132 
C -2.683901 -1.55874 -3 -0.795609 -3 0 
C -3 0.795609 -2.683901 1.55874 -2.12132 2.12132 
C -1.55874 2.683901 -0.795609 3 0 3 
z
" style="stroke: #3a3a3a"/>
    </defs>
    <g clip-path="url(#pe551c2ff64)">
     <use xlink:href="#m47317239fa" x="249.329583" y="331.561614" style="fill-opacity: 0; stroke: #3a3a3a"/>
     <use xlink:href="#m47317239fa" x="249.329583" y="330.505179" style="fill-opacity: 0; stroke: #3a3a3a"/>
     <use xlink:href="#m47317239fa" x="249.329583" y="331.283605" style="fill-opacity: 0; stroke: #3a3a3a"/>
     <use xlink:href="#m47317239fa" x="249.329583" y="330.115965" style="fill-opacity: 0; stroke: #3a3a3a"/>
     <use xlink:href="#m47317239fa" x="249.329583" y="330.783188" style="fill-opacity: 0; stroke: #3a3a3a"/>
     <use xlink:href="#m47317239fa" x="249.329583" y="331.005596" style="fill-opacity: 0; stroke: #3a3a3a"/>
     <use xlink:href="#m47317239fa" x="249.329583" y="329.059529" style="fill-opacity: 0; stroke: #3a3a3a"/>
     <use xlink:href="#m47317239fa" x="249.329583" y="330.338373" style="fill-opacity: 0; stroke: #3a3a3a"/>
     <use xlink:href="#m47317239fa" x="249.329583" y="330.894392" style="fill-opacity: 0; stroke: #3a3a3a"/>
    </g>
   </g>
   <g id="patch_8">
    <path d="M 392.70875 358.973347 
L 436.825417 358.973347 
L 436.825417 357.416494 
L 392.70875 357.416494 
L 392.70875 358.973347 
z
" clip-path="url(#pe551c2ff64)" style="fill: #415d82; stroke: #3a3a3a; stroke-linejoin: miter"/>
   </g>
   <g id="line2d_18">
    <path d="M 414.767083 358.973347 
L 414.767083 359.807375 
" clip-path="url(#pe551c2ff64)" style="fill: none; stroke: #3a3a3a"/>
   </g>
   <g id="line2d_19">
    <path d="M 414.767083 357.416494 
L 414.767083 356.248854 
" clip-path="url(#pe551c2ff64)" style="fill: none; stroke: #3a3a3a"/>
   </g>
   <g id="line2d_20">
    <path d="M 403.737917 359.807375 
L 425.79625 359.807375 
" clip-path="url(#pe551c2ff64)" style="fill: none; stroke: #3a3a3a; stroke-linecap: round"/>
   </g>
   <g id="line2d_21">
    <path d="M 403.737917 356.248854 
L 425.79625 356.248854 
" clip-path="url(#pe551c2ff64)" style="fill: none; stroke: #3a3a3a; stroke-linecap: round"/>
   </g>
   <g id="line2d_22">
    <g clip-path="url(#pe551c2ff64)">
     <use xlink:href="#m47317239fa" x="414.767083" y="353.301954" style="fill-opacity: 0; stroke: #3a3a3a"/>
    </g>
   </g>
   <g id="patch_9">
    <path d="M 558.14625 358.417328 
L 602.262917 358.417328 
L 602.262917 356.568565 
L 558.14625 356.568565 
L 558.14625 358.417328 
z
" clip-path="url(#pe551c2ff64)" style="fill: #415d82; stroke: #3a3a3a; stroke-linejoin: miter"/>
   </g>
   <g id="line2d_23">
    <path d="M 580.204583 358.417328 
L 580.204583 359.251356 
" clip-path="url(#pe551c2ff64)" style="fill: none; stroke: #3a3a3a"/>
   </g>
   <g id="line2d_24">
    <path d="M 580.204583 356.568565 
L 580.204583 355.804039 
" clip-path="url(#pe551c2ff64)" style="fill: none; stroke: #3a3a3a"/>
   </g>
   <g id="line2d_25">
    <path d="M 569.175417 359.251356 
L 591.23375 359.251356 
" clip-path="url(#pe551c2ff64)" style="fill: none; stroke: #3a3a3a; stroke-linecap: round"/>
   </g>
   <g id="line2d_26">
    <path d="M 569.175417 355.804039 
L 591.23375 355.804039 
" clip-path="url(#pe551c2ff64)" style="fill: none; stroke: #3a3a3a; stroke-linecap: round"/>
   </g>
   <g id="line2d_27"/>
   <g id="patch_10">
    <path d="M 105.950417 337.802927 
L 150.067083 337.802927 
L 150.067083 335.731756 
L 105.950417 335.731756 
L 105.950417 337.802927 
z
" clip-path="url(#pe551c2ff64)" style="fill: #2f917e; stroke: #3a3a3a; stroke-linejoin: miter"/>
   </g>
   <g id="line2d_28">
    <path d="M 128.00875 337.802927 
L 128.00875 339.012268 
" clip-path="url(#pe551c2ff64)" style="fill: none; stroke: #3a3a3a"/>
   </g>
   <g id="line2d_29">
    <path d="M 128.00875 335.731756 
L 128.00875 334.174903 
" clip-path="url(#pe551c2ff64)" style="fill: none; stroke: #3a3a3a"/>
   </g>
   <g id="line2d_30">
    <path d="M 116.979583 339.012268 
L 139.037917 339.012268 
" clip-path="url(#pe551c2ff64)" style="fill: none; stroke: #3a3a3a; stroke-linecap: round"/>
   </g>
   <g id="line2d_31">
    <path d="M 116.979583 334.174903 
L 139.037917 334.174903 
" clip-path="url(#pe551c2ff64)" style="fill: none; stroke: #3a3a3a; stroke-linecap: round"/>
   </g>
   <g id="line2d_32">
    <g clip-path="url(#pe551c2ff64)">
     <use xlink:href="#m47317239fa" x="128.00875" y="329.226335" style="fill-opacity: 0; stroke: #3a3a3a"/>
     <use xlink:href="#m47317239fa" x="128.00875" y="298.033674" style="fill-opacity: 0; stroke: #3a3a3a"/>
     <use xlink:href="#m47317239fa" x="128.00875" y="326.72425" style="fill-opacity: 0; stroke: #3a3a3a"/>
     <use xlink:href="#m47317239fa" x="128.00875" y="320.496838" style="fill-opacity: 0; stroke: #3a3a3a"/>
     <use xlink:href="#m47317239fa" x="128.00875" y="325.222999" style="fill-opacity: 0; stroke: #3a3a3a"/>
     <use xlink:href="#m47317239fa" x="128.00875" y="321.608876" style="fill-opacity: 0; stroke: #3a3a3a"/>
    </g>
   </g>
   <g id="patch_11">
    <path d="M 271.387917 328.559112 
L 315.504583 328.559112 
L 315.504583 324.458473 
L 271.387917 324.458473 
L 271.387917 328.559112 
z
" clip-path="url(#pe551c2ff64)" style="fill: #2f917e; stroke: #3a3a3a; stroke-linejoin: miter"/>
   </g>
   <g id="line2d_33">
    <path d="M 293.44625 328.559112 
L 293.44625 334.286107 
" clip-path="url(#pe551c2ff64)" style="fill: none; stroke: #3a3a3a"/>
   </g>
   <g id="line2d_34">
    <path d="M 293.44625 324.458473 
L 293.44625 320.608042 
" clip-path="url(#pe551c2ff64)" style="fill: none; stroke: #3a3a3a"/>
   </g>
   <g id="line2d_35">
    <path d="M 282.417083 334.286107 
L 304.475417 334.286107 
" clip-path="url(#pe551c2ff64)" style="fill: none; stroke: #3a3a3a; stroke-linecap: round"/>
   </g>
   <g id="line2d_36">
    <path d="M 282.417083 320.608042 
L 304.475417 320.608042 
" clip-path="url(#pe551c2ff64)" style="fill: none; stroke: #3a3a3a; stroke-linecap: round"/>
   </g>
   <g id="line2d_37">
    <g clip-path="url(#pe551c2ff64)">
     <use xlink:href="#m47317239fa" x="293.44625" y="336.454581" style="fill-opacity: 0; stroke: #3a3a3a"/>
     <use xlink:href="#m47317239fa" x="293.44625" y="243.988636" style="fill-opacity: 0; stroke: #3a3a3a"/>
     <use xlink:href="#m47317239fa" x="293.44625" y="289.415381" style="fill-opacity: 0; stroke: #3a3a3a"/>
     <use xlink:href="#m47317239fa" x="293.44625" y="197.616659" style="fill-opacity: 0; stroke: #3a3a3a"/>
     <use xlink:href="#m47317239fa" x="293.44625" y="315.27026" style="fill-opacity: 0; stroke: #3a3a3a"/>
     <use xlink:href="#m47317239fa" x="293.44625" y="298.756499" style="fill-opacity: 0; stroke: #3a3a3a"/>
     <use xlink:href="#m47317239fa" x="293.44625" y="303.315854" style="fill-opacity: 0; stroke: #3a3a3a"/>
     <use xlink:href="#m47317239fa" x="293.44625" y="313.824611" style="fill-opacity: 0; stroke: #3a3a3a"/>
     <use xlink:href="#m47317239fa" x="293.44625" y="198.395086" style="fill-opacity: 0; stroke: #3a3a3a"/>
     <use xlink:href="#m47317239fa" x="293.44625" y="313.435398" style="fill-opacity: 0; stroke: #3a3a3a"/>
     <use xlink:href="#m47317239fa" x="293.44625" y="297.31085" style="fill-opacity: 0; stroke: #3a3a3a"/>
    </g>
   </g>
   <g id="patch_12">
    <path d="M 436.825417 156.804872 
L 480.942083 156.804872 
L 480.942083 155.136815 
L 436.825417 155.136815 
L 436.825417 156.804872 
z
" clip-path="url(#pe551c2ff64)" style="fill: #2f917e; stroke: #3a3a3a; stroke-linejoin: miter"/>
   </g>
   <g id="line2d_38">
    <path d="M 458.88375 156.804872 
L 458.88375 159.028947 
" clip-path="url(#pe551c2ff64)" style="fill: none; stroke: #3a3a3a"/>
   </g>
   <g id="line2d_39">
    <path d="M 458.88375 155.136815 
L 458.88375 152.912739 
" clip-path="url(#pe551c2ff64)" style="fill: none; stroke: #3a3a3a"/>
   </g>
   <g id="line2d_40">
    <path d="M 447.854583 159.028947 
L 469.912917 159.028947 
" clip-path="url(#pe551c2ff64)" style="fill: none; stroke: #3a3a3a; stroke-linecap: round"/>
   </g>
   <g id="line2d_41">
    <path d="M 447.854583 152.912739 
L 469.912917 152.912739 
" clip-path="url(#pe551c2ff64)" style="fill: none; stroke: #3a3a3a; stroke-linecap: round"/>
   </g>
   <g id="line2d_42">
    <g clip-path="url(#pe551c2ff64)">
     <use xlink:href="#m47317239fa" x="458.88375" y="323.832952" style="fill-opacity: 0; stroke: #3a3a3a"/>
     <use xlink:href="#m47317239fa" x="458.88375" y="196.838233" style="fill-opacity: 0; stroke: #3a3a3a"/>
     <use xlink:href="#m47317239fa" x="458.88375" y="33.368674" style="fill-opacity: 0; stroke: #3a3a3a"/>
     <use xlink:href="#m47317239fa" x="458.88375" y="147.35255" style="fill-opacity: 0; stroke: #3a3a3a"/>
     <use xlink:href="#m47317239fa" x="458.88375" y="125.667813" style="fill-opacity: 0; stroke: #3a3a3a"/>
     <use xlink:href="#m47317239fa" x="458.88375" y="65.061752" style="fill-opacity: 0; stroke: #3a3a3a"/>
     <use xlink:href="#m47317239fa" x="458.88375" y="147.35255" style="fill-opacity: 0; stroke: #3a3a3a"/>
     <use xlink:href="#m47317239fa" x="458.88375" y="135.676153" style="fill-opacity: 0; stroke: #3a3a3a"/>
     <use xlink:href="#m47317239fa" x="458.88375" y="144.572456" style="fill-opacity: 0; stroke: #3a3a3a"/>
     <use xlink:href="#m47317239fa" x="458.88375" y="97.310848" style="fill-opacity: 0; stroke: #3a3a3a"/>
     <use xlink:href="#m47317239fa" x="458.88375" y="95.086773" style="fill-opacity: 0; stroke: #3a3a3a"/>
    </g>
   </g>
   <g id="patch_13">
    <path d="M 602.262917 157.360891 
L 646.379583 157.360891 
L 646.379583 155.136815 
L 602.262917 155.136815 
L 602.262917 157.360891 
z
" clip-path="url(#pe551c2ff64)" style="fill: #2f917e; stroke: #3a3a3a; stroke-linejoin: miter"/>
   </g>
   <g id="line2d_43">
    <path d="M 624.32125 157.360891 
L 624.32125 159.028947 
" clip-path="url(#pe551c2ff64)" style="fill: none; stroke: #3a3a3a"/>
   </g>
   <g id="line2d_44">
    <path d="M 624.32125 155.136815 
L 624.32125 153.468758 
" clip-path="url(#pe551c2ff64)" style="fill: none; stroke: #3a3a3a"/>
   </g>
   <g id="line2d_45">
    <path d="M 613.292083 159.028947 
L 635.350417 159.028947 
" clip-path="url(#pe551c2ff64)" style="fill: none; stroke: #3a3a3a; stroke-linecap: round"/>
   </g>
   <g id="line2d_46">
    <path d="M 613.292083 153.468758 
L 635.350417 153.468758 
" clip-path="url(#pe551c2ff64)" style="fill: none; stroke: #3a3a3a; stroke-linecap: round"/>
   </g>
   <g id="line2d_47">
    <g clip-path="url(#pe551c2ff64)">
     <use xlink:href="#m47317239fa" x="624.32125" y="176.265533" style="fill-opacity: 0; stroke: #3a3a3a"/>
     <use xlink:href="#m47317239fa" x="624.32125" y="319.774014" style="fill-opacity: 0; stroke: #3a3a3a"/>
     <use xlink:href="#m47317239fa" x="624.32125" y="29.476542" style="fill-opacity: 0; stroke: #3a3a3a"/>
     <use xlink:href="#m47317239fa" x="624.32125" y="130.671983" style="fill-opacity: 0; stroke: #3a3a3a"/>
     <use xlink:href="#m47317239fa" x="624.32125" y="36.148769" style="fill-opacity: 0; stroke: #3a3a3a"/>
     <use xlink:href="#m47317239fa" x="624.32125" y="80.630281" style="fill-opacity: 0; stroke: #3a3a3a"/>
     <use xlink:href="#m47317239fa" x="624.32125" y="127.891888" style="fill-opacity: 0; stroke: #3a3a3a"/>
     <use xlink:href="#m47317239fa" x="624.32125" y="119.551605" style="fill-opacity: 0; stroke: #3a3a3a"/>
     <use xlink:href="#m47317239fa" x="624.32125" y="139.568285" style="fill-opacity: 0; stroke: #3a3a3a"/>
     <use xlink:href="#m47317239fa" x="624.32125" y="137.900229" style="fill-opacity: 0; stroke: #3a3a3a"/>
     <use xlink:href="#m47317239fa" x="624.32125" y="88.414546" style="fill-opacity: 0; stroke: #3a3a3a"/>
     <use xlink:href="#m47317239fa" x="624.32125" y="145.684493" style="fill-opacity: 0; stroke: #3a3a3a"/>
    </g>
   </g>
   <g id="patch_14">
    <path d="M 150.067083 337.191306 
L 194.18375 337.191306 
L 194.18375 335.606652 
L 150.067083 335.606652 
L 150.067083 337.191306 
z
" clip-path="url(#pe551c2ff64)" style="fill: #9ac64d; stroke: #3a3a3a; stroke-linejoin: miter"/>
   </g>
   <g id="line2d_48">
    <path d="M 172.125417 337.191306 
L 172.125417 339.012268 
" clip-path="url(#pe551c2ff64)" style="fill: none; stroke: #3a3a3a"/>
   </g>
   <g id="line2d_49">
    <path d="M 172.125417 335.606652 
L 172.125417 333.507681 
" clip-path="url(#pe551c2ff64)" style="fill: none; stroke: #3a3a3a"/>
   </g>
   <g id="line2d_50">
    <path d="M 161.09625 339.012268 
L 183.154583 339.012268 
" clip-path="url(#pe551c2ff64)" style="fill: none; stroke: #3a3a3a; stroke-linecap: round"/>
   </g>
   <g id="line2d_51">
    <path d="M 161.09625 333.507681 
L 183.154583 333.507681 
" clip-path="url(#pe551c2ff64)" style="fill: none; stroke: #3a3a3a; stroke-linecap: round"/>
   </g>
   <g id="line2d_52">
    <g clip-path="url(#pe551c2ff64)">
     <use xlink:href="#m47317239fa" x="172.125417" y="341.73676" style="fill-opacity: 0; stroke: #3a3a3a"/>
     <use xlink:href="#m47317239fa" x="172.125417" y="340.735926" style="fill-opacity: 0; stroke: #3a3a3a"/>
     <use xlink:href="#m47317239fa" x="172.125417" y="339.568287" style="fill-opacity: 0; stroke: #3a3a3a"/>
     <use xlink:href="#m47317239fa" x="172.125417" y="330.004762" style="fill-opacity: 0; stroke: #3a3a3a"/>
     <use xlink:href="#m47317239fa" x="172.125417" y="320.274431" style="fill-opacity: 0; stroke: #3a3a3a"/>
     <use xlink:href="#m47317239fa" x="172.125417" y="309.154052" style="fill-opacity: 0; stroke: #3a3a3a"/>
    </g>
   </g>
   <g id="patch_15">
    <path d="M 315.504583 326.946658 
L 359.62125 326.946658 
L 359.62125 325.000591 
L 315.504583 325.000591 
L 315.504583 326.946658 
z
" clip-path="url(#pe551c2ff64)" style="fill: #9ac64d; stroke: #3a3a3a; stroke-linejoin: miter"/>
   </g>
   <g id="line2d_53">
    <path d="M 337.562917 326.946658 
L 337.562917 329.504344 
" clip-path="url(#pe551c2ff64)" style="fill: none; stroke: #3a3a3a"/>
   </g>
   <g id="line2d_54">
    <path d="M 337.562917 325.000591 
L 337.562917 322.832118 
" clip-path="url(#pe551c2ff64)" style="fill: none; stroke: #3a3a3a"/>
   </g>
   <g id="line2d_55">
    <path d="M 326.53375 329.504344 
L 348.592083 329.504344 
" clip-path="url(#pe551c2ff64)" style="fill: none; stroke: #3a3a3a; stroke-linecap: round"/>
   </g>
   <g id="line2d_56">
    <path d="M 326.53375 322.832118 
L 348.592083 322.832118 
" clip-path="url(#pe551c2ff64)" style="fill: none; stroke: #3a3a3a; stroke-linecap: round"/>
   </g>
   <g id="line2d_57">
    <g clip-path="url(#pe551c2ff64)">
     <use xlink:href="#m47317239fa" x="337.562917" y="330.004762" style="fill-opacity: 0; stroke: #3a3a3a"/>
     <use xlink:href="#m47317239fa" x="337.562917" y="334.842126" style="fill-opacity: 0; stroke: #3a3a3a"/>
     <use xlink:href="#m47317239fa" x="337.562917" y="334.67532" style="fill-opacity: 0; stroke: #3a3a3a"/>
     <use xlink:href="#m47317239fa" x="337.562917" y="311.600536" style="fill-opacity: 0; stroke: #3a3a3a"/>
     <use xlink:href="#m47317239fa" x="337.562917" y="304.149882" style="fill-opacity: 0; stroke: #3a3a3a"/>
    </g>
   </g>
   <g id="patch_16">
    <path d="M 480.942083 157.916909 
L 525.05875 157.916909 
L 525.05875 155.692834 
L 480.942083 155.692834 
L 480.942083 157.916909 
z
" clip-path="url(#pe551c2ff64)" style="fill: #9ac64d; stroke: #3a3a3a; stroke-linejoin: miter"/>
   </g>
   <g id="line2d_58">
    <path d="M 503.000417 157.916909 
L 503.000417 159.584966 
" clip-path="url(#pe551c2ff64)" style="fill: none; stroke: #3a3a3a"/>
   </g>
   <g id="line2d_59">
    <path d="M 503.000417 155.692834 
L 503.000417 153.468758 
" clip-path="url(#pe551c2ff64)" style="fill: none; stroke: #3a3a3a"/>
   </g>
   <g id="line2d_60">
    <path d="M 491.97125 159.584966 
L 514.029583 159.584966 
" clip-path="url(#pe551c2ff64)" style="fill: none; stroke: #3a3a3a; stroke-linecap: round"/>
   </g>
   <g id="line2d_61">
    <path d="M 491.97125 153.468758 
L 514.029583 153.468758 
" clip-path="url(#pe551c2ff64)" style="fill: none; stroke: #3a3a3a; stroke-linecap: round"/>
   </g>
   <g id="line2d_62">
    <g clip-path="url(#pe551c2ff64)">
     <use xlink:href="#m47317239fa" x="503.000417" y="177.93359" style="fill-opacity: 0; stroke: #3a3a3a"/>
     <use xlink:href="#m47317239fa" x="503.000417" y="162.365061" style="fill-opacity: 0; stroke: #3a3a3a"/>
     <use xlink:href="#m47317239fa" x="503.000417" y="150.688664" style="fill-opacity: 0; stroke: #3a3a3a"/>
     <use xlink:href="#m47317239fa" x="503.000417" y="140.680323" style="fill-opacity: 0; stroke: #3a3a3a"/>
     <use xlink:href="#m47317239fa" x="503.000417" y="100.646962" style="fill-opacity: 0; stroke: #3a3a3a"/>
    </g>
   </g>
   <g id="patch_17">
    <path d="M 646.379583 157.360891 
L 690.49625 157.360891 
L 690.49625 155.692834 
L 646.379583 155.692834 
L 646.379583 157.360891 
z
" clip-path="url(#pe551c2ff64)" style="fill: #9ac64d; stroke: #3a3a3a; stroke-linejoin: miter"/>
   </g>
   <g id="line2d_63">
    <path d="M 668.437917 157.360891 
L 668.437917 159.584966 
" clip-path="url(#pe551c2ff64)" style="fill: none; stroke: #3a3a3a"/>
   </g>
   <g id="line2d_64">
    <path d="M 668.437917 155.692834 
L 668.437917 153.468758 
" clip-path="url(#pe551c2ff64)" style="fill: none; stroke: #3a3a3a"/>
   </g>
   <g id="line2d_65">
    <path d="M 657.40875 159.584966 
L 679.467083 159.584966 
" clip-path="url(#pe551c2ff64)" style="fill: none; stroke: #3a3a3a; stroke-linecap: round"/>
   </g>
   <g id="line2d_66">
    <path d="M 657.40875 153.468758 
L 679.467083 153.468758 
" clip-path="url(#pe551c2ff64)" style="fill: none; stroke: #3a3a3a; stroke-linecap: round"/>
   </g>
   <g id="line2d_67">
    <g clip-path="url(#pe551c2ff64)">
     <use xlink:href="#m47317239fa" x="668.437917" y="324.833786" style="fill-opacity: 0; stroke: #3a3a3a"/>
     <use xlink:href="#m47317239fa" x="668.437917" y="160.697004" style="fill-opacity: 0; stroke: #3a3a3a"/>
     <use xlink:href="#m47317239fa" x="668.437917" y="80.630281" style="fill-opacity: 0; stroke: #3a3a3a"/>
     <use xlink:href="#m47317239fa" x="668.437917" y="152.35672" style="fill-opacity: 0; stroke: #3a3a3a"/>
    </g>
   </g>
   <g id="line2d_68">
    <path d="M 61.83375 345.879101 
L 105.950417 345.879101 
" clip-path="url(#pe551c2ff64)" style="fill: none; stroke: #3a3a3a"/>
   </g>
   <g id="line2d_69">
    <path d="M 227.27125 338.873263 
L 271.387917 338.873263 
" clip-path="url(#pe551c2ff64)" style="fill: none; stroke: #3a3a3a"/>
   </g>
   <g id="line2d_70">
    <path d="M 392.70875 357.805707 
L 436.825417 357.805707 
" clip-path="url(#pe551c2ff64)" style="fill: none; stroke: #3a3a3a"/>
   </g>
   <g id="line2d_71">
    <path d="M 558.14625 357.082882 
L 602.262917 357.082882 
" clip-path="url(#pe551c2ff64)" style="fill: none; stroke: #3a3a3a"/>
   </g>
   <g id="line2d_72">
    <path d="M 105.950417 336.73259 
L 150.067083 336.73259 
" clip-path="url(#pe551c2ff64)" style="fill: none; stroke: #3a3a3a"/>
   </g>
   <g id="line2d_73">
    <path d="M 271.387917 325.779018 
L 315.504583 325.779018 
" clip-path="url(#pe551c2ff64)" style="fill: none; stroke: #3a3a3a"/>
   </g>
   <g id="line2d_74">
    <path d="M 436.825417 155.692834 
L 480.942083 155.692834 
" clip-path="url(#pe551c2ff64)" style="fill: none; stroke: #3a3a3a"/>
   </g>
   <g id="line2d_75">
    <path d="M 602.262917 156.248853 
L 646.379583 156.248853 
" clip-path="url(#pe551c2ff64)" style="fill: none; stroke: #3a3a3a"/>
   </g>
   <g id="line2d_76">
    <path d="M 150.067083 336.232173 
L 194.18375 336.232173 
" clip-path="url(#pe551c2ff64)" style="fill: none; stroke: #3a3a3a"/>
   </g>
   <g id="line2d_77">
    <path d="M 315.504583 325.723416 
L 359.62125 325.723416 
" clip-path="url(#pe551c2ff64)" style="fill: none; stroke: #3a3a3a"/>
   </g>
   <g id="line2d_78">
    <path d="M 480.942083 156.248853 
L 525.05875 156.248853 
" clip-path="url(#pe551c2ff64)" style="fill: none; stroke: #3a3a3a"/>
   </g>
   <g id="line2d_79">
    <path d="M 646.379583 156.248853 
L 690.49625 156.248853 
" clip-path="url(#pe551c2ff64)" style="fill: none; stroke: #3a3a3a"/>
   </g>
   <g id="patch_18">
    <path d="M 45.29 366.424 
L 45.29 12.96 
" style="fill: none; stroke: #cccccc; stroke-width: 0.8; stroke-linejoin: miter; stroke-linecap: square"/>
   </g>
   <g id="patch_19">
    <path d="M 707.04 366.424 
L 707.04 12.96 
" style="fill: none; stroke: #cccccc; stroke-width: 0.8; stroke-linejoin: miter; stroke-linecap: square"/>
   </g>
   <g id="patch_20">
    <path d="M 45.29 366.424 
L 707.04 366.424 
" style="fill: none; stroke: #cccccc; stroke-width: 0.8; stroke-linejoin: miter; stroke-linecap: square"/>
   </g>
   <g id="patch_21">
    <path d="M 45.29 12.96 
L 707.04 12.96 
" style="fill: none; stroke: #cccccc; stroke-width: 0.8; stroke-linejoin: miter; stroke-linecap: square"/>
   </g>
   <g id="legend_1">
    <g id="patch_22">
     <path d="M 53.69 93.6825 
L 252.23375 93.6825 
Q 254.63375 93.6825 254.63375 91.2825 
L 254.63375 21.36 
Q 254.63375 18.96 252.23375 18.96 
L 53.69 18.96 
Q 51.29 18.96 51.29 21.36 
L 51.29 91.2825 
Q 51.29 93.6825 53.69 93.6825 
z
" style="fill: #ffffff; opacity: 0.8; stroke: #cccccc; stroke-linejoin: miter"/>
    </g>
    <g id="text_14">
     <!-- Medium -->
     <g style="fill: #262626" transform="translate(128.970312 32.878125) scale(0.12 -0.12)">
      <defs>
       <path id="DejaVuSans-4d" d="M 628 4666 
L 1569 4666 
L 2759 1491 
L 3956 4666 
L 4897 4666 
L 4897 0 
L 4281 0 
L 4281 4097 
L 3078 897 
L 2444 897 
L 1241 4097 
L 1241 0 
L 628 0 
L 628 4666 
z
" transform="scale(0.015625)"/>
       <path id="DejaVuSans-75" d="M 544 1381 
L 544 3500 
L 1119 3500 
L 1119 1403 
Q 1119 906 1312 657 
Q 1506 409 1894 409 
Q 2359 409 2629 706 
Q 2900 1003 2900 1516 
L 2900 3500 
L 3475 3500 
L 3475 0 
L 2900 0 
L 2900 538 
Q 2691 219 2414 64 
Q 2138 -91 1772 -91 
Q 1169 -91 856 284 
Q 544 659 544 1381 
z
M 1991 3584 
L 1991 3584 
z
" transform="scale(0.015625)"/>
      </defs>
      <use xlink:href="#DejaVuSans-4d"/>
      <use xlink:href="#DejaVuSans-65" x="86.279297"/>
      <use xlink:href="#DejaVuSans-64" x="147.802734"/>
      <use xlink:href="#DejaVuSans-69" x="211.279297"/>
      <use xlink:href="#DejaVuSans-75" x="239.0625"/>
      <use xlink:href="#DejaVuSans-6d" x="302.441406"/>
     </g>
    </g>
    <g id="patch_23">
     <path d="M 56.09 50.491875 
L 80.09 50.491875 
L 80.09 42.091875 
L 56.09 42.091875 
z
" style="fill: #415d82; stroke: #3a3a3a; stroke-linejoin: miter"/>
    </g>
    <g id="text_15">
     <!-- Ethernet -->
     <g style="fill: #262626" transform="translate(89.69 50.491875) scale(0.12 -0.12)">
      <defs>
       <path id="DejaVuSans-45" d="M 628 4666 
L 3578 4666 
L 3578 4134 
L 1259 4134 
L 1259 2753 
L 3481 2753 
L 3481 2222 
L 1259 2222 
L 1259 531 
L 3634 531 
L 3634 0 
L 628 0 
L 628 4666 
z
" transform="scale(0.015625)"/>
      </defs>
      <use xlink:href="#DejaVuSans-45"/>
      <use xlink:href="#DejaVuSans-74" x="63.183594"/>
      <use xlink:href="#DejaVuSans-68" x="102.392578"/>
      <use xlink:href="#DejaVuSans-65" x="165.771484"/>
      <use xlink:href="#DejaVuSans-72" x="227.294922"/>
      <use xlink:href="#DejaVuSans-6e" x="266.658203"/>
      <use xlink:href="#DejaVuSans-65" x="330.037109"/>
      <use xlink:href="#DejaVuSans-74" x="391.560547"/>
     </g>
    </g>
    <g id="patch_24">
     <path d="M 56.09 68.105625 
L 80.09 68.105625 
L 80.09 59.705625 
L 56.09 59.705625 
z
" style="fill: #2f917e; stroke: #3a3a3a; stroke-linejoin: miter"/>
    </g>
    <g id="text_16">
     <!-- WiFi_2.4GHz_20-40MHz -->
     <g style="fill: #262626" transform="translate(89.69 68.105625) scale(0.12 -0.12)">
      <defs>
       <path id="DejaVuSans-57" d="M 213 4666 
L 850 4666 
L 1831 722 
L 2809 4666 
L 3519 4666 
L 4500 722 
L 5478 4666 
L 6119 4666 
L 4947 0 
L 4153 0 
L 3169 4050 
L 2175 0 
L 1381 0 
L 213 4666 
z
" transform="scale(0.015625)"/>
       <path id="DejaVuSans-5f" d="M 3263 -1063 
L 3263 -1509 
L -63 -1509 
L -63 -1063 
L 3263 -1063 
z
" transform="scale(0.015625)"/>
       <path id="DejaVuSans-2e" d="M 684 794 
L 1344 794 
L 1344 0 
L 684 0 
L 684 794 
z
" transform="scale(0.015625)"/>
       <path id="DejaVuSans-47" d="M 3809 666 
L 3809 1919 
L 2778 1919 
L 2778 2438 
L 4434 2438 
L 4434 434 
Q 4069 175 3628 42 
Q 3188 -91 2688 -91 
Q 1594 -91 976 548 
Q 359 1188 359 2328 
Q 359 3472 976 4111 
Q 1594 4750 2688 4750 
Q 3144 4750 3555 4637 
Q 3966 4525 4313 4306 
L 4313 3634 
Q 3963 3931 3569 4081 
Q 3175 4231 2741 4231 
Q 1884 4231 1454 3753 
Q 1025 3275 1025 2328 
Q 1025 1384 1454 906 
Q 1884 428 2741 428 
Q 3075 428 3337 486 
Q 3600 544 3809 666 
z
" transform="scale(0.015625)"/>
       <path id="DejaVuSans-48" d="M 628 4666 
L 1259 4666 
L 1259 2753 
L 3553 2753 
L 3553 4666 
L 4184 4666 
L 4184 0 
L 3553 0 
L 3553 2222 
L 1259 2222 
L 1259 0 
L 628 0 
L 628 4666 
z
" transform="scale(0.015625)"/>
       <path id="DejaVuSans-7a" d="M 353 3500 
L 3084 3500 
L 3084 2975 
L 922 459 
L 3084 459 
L 3084 0 
L 275 0 
L 275 525 
L 2438 3041 
L 353 3041 
L 353 3500 
z
" transform="scale(0.015625)"/>
       <path id="DejaVuSans-2d" d="M 313 2009 
L 1997 2009 
L 1997 1497 
L 313 1497 
L 313 2009 
z
" transform="scale(0.015625)"/>
      </defs>
      <use xlink:href="#DejaVuSans-57"/>
      <use xlink:href="#DejaVuSans-69" x="96.626953"/>
      <use xlink:href="#DejaVuSans-46" x="124.410156"/>
      <use xlink:href="#DejaVuSans-69" x="174.679688"/>
      <use xlink:href="#DejaVuSans-5f" x="202.462891"/>
      <use xlink:href="#DejaVuSans-32" x="252.462891"/>
      <use xlink:href="#DejaVuSans-2e" x="316.085938"/>
      <use xlink:href="#DejaVuSans-34" x="347.873047"/>
      <use xlink:href="#DejaVuSans-47" x="411.496094"/>
      <use xlink:href="#DejaVuSans-48" x="488.986328"/>
      <use xlink:href="#DejaVuSans-7a" x="564.181641"/>
      <use xlink:href="#DejaVuSans-5f" x="616.671875"/>
      <use xlink:href="#DejaVuSans-32" x="666.671875"/>
      <use xlink:href="#DejaVuSans-30" x="730.294922"/>
      <use xlink:href="#DejaVuSans-2d" x="793.917969"/>
      <use xlink:href="#DejaVuSans-34" x="830.001953"/>
      <use xlink:href="#DejaVuSans-30" x="893.625"/>
      <use xlink:href="#DejaVuSans-4d" x="957.248047"/>
      <use xlink:href="#DejaVuSans-48" x="1043.527344"/>
      <use xlink:href="#DejaVuSans-7a" x="1118.722656"/>
     </g>
    </g>
    <g id="patch_25">
     <path d="M 56.09 86.053125 
L 80.09 86.053125 
L 80.09 77.653125 
L 56.09 77.653125 
z
" style="fill: #9ac64d; stroke: #3a3a3a; stroke-linejoin: miter"/>
    </g>
    <g id="text_17">
     <!-- WiFi_5.0GHz_20-40-80MHz -->
     <g style="fill: #262626" transform="translate(89.69 86.053125) scale(0.12 -0.12)">
      <defs>
       <path id="DejaVuSans-38" d="M 2034 2216 
Q 1584 2216 1326 1975 
Q 1069 1734 1069 1313 
Q 1069 891 1326 650 
Q 1584 409 2034 409 
Q 2484 409 2743 651 
Q 3003 894 3003 1313 
Q 3003 1734 2745 1975 
Q 2488 2216 2034 2216 
z
M 1403 2484 
Q 997 2584 770 2862 
Q 544 3141 544 3541 
Q 544 4100 942 4425 
Q 1341 4750 2034 4750 
Q 2731 4750 3128 4425 
Q 3525 4100 3525 3541 
Q 3525 3141 3298 2862 
Q 3072 2584 2669 2484 
Q 3125 2378 3379 2068 
Q 3634 1759 3634 1313 
Q 3634 634 3220 271 
Q 2806 -91 2034 -91 
Q 1263 -91 848 271 
Q 434 634 434 1313 
Q 434 1759 690 2068 
Q 947 2378 1403 2484 
z
M 1172 3481 
Q 1172 3119 1398 2916 
Q 1625 2713 2034 2713 
Q 2441 2713 2670 2916 
Q 2900 3119 2900 3481 
Q 2900 3844 2670 4047 
Q 2441 4250 2034 4250 
Q 1625 4250 1398 4047 
Q 1172 3844 1172 3481 
z
" transform="scale(0.015625)"/>
      </defs>
      <use xlink:href="#DejaVuSans-57"/>
      <use xlink:href="#DejaVuSans-69" x="96.626953"/>
      <use xlink:href="#DejaVuSans-46" x="124.410156"/>
      <use xlink:href="#DejaVuSans-69" x="174.679688"/>
      <use xlink:href="#DejaVuSans-5f" x="202.462891"/>
      <use xlink:href="#DejaVuSans-35" x="252.462891"/>
      <use xlink:href="#DejaVuSans-2e" x="316.085938"/>
      <use xlink:href="#DejaVuSans-30" x="347.873047"/>
      <use xlink:href="#DejaVuSans-47" x="411.496094"/>
      <use xlink:href="#DejaVuSans-48" x="488.986328"/>
      <use xlink:href="#DejaVuSans-7a" x="564.181641"/>
      <use xlink:href="#DejaVuSans-5f" x="616.671875"/>
      <use xlink:href="#DejaVuSans-32" x="666.671875"/>
      <use xlink:href="#DejaVuSans-30" x="730.294922"/>
      <use xlink:href="#DejaVuSans-2d" x="793.917969"/>
      <use xlink:href="#DejaVuSans-34" x="830.001953"/>
      <use xlink:href="#DejaVuSans-30" x="893.625"/>
      <use xlink:href="#DejaVuSans-2d" x="957.248047"/>
      <use xlink:href="#DejaVuSans-38" x="993.332031"/>
      <use xlink:href="#DejaVuSans-30" x="1056.955078"/>
      <use xlink:href="#DejaVuSans-4d" x="1120.578125"/>
      <use xlink:href="#DejaVuSans-48" x="1206.857422"/>
      <use xlink:href="#DejaVuSans-7a" x="1282.052734"/>
     </g>
    </g>
   </g>
  </g>
 </g>
 <defs>
  <clipPath id="pe551c2ff64">
   <rect x="45.29" y="12.96" width="661.75" height="353.464"/>
  </clipPath>
 </defs>
</svg>
